<svg id="Clownfish" xmlns="http://www.w3.org/2000/svg" viewBox="0 0 248.35 129.76"><defs><style>.cls-1{fill:#f15d22;}.cls-2{fill:#c74d1b;}.cls-3{fill:#fff;}.cls-4,.cls-5{fill:#231f20;}.cls-4,.cls-6{stroke:#231f20;stroke-miterlimit:10;}.cls-6{fill:none;}</style></defs><title>Clownfish</title><path id="Body" class="cls-1" d="M194.26,29.19s31.91-30.6,53.28,6.33c0,0,7.12,43-46.16,28.22,0,0-15.56,3.42-16.35,5,0,0,30.86,8.44-13.18,31.91,0,0-7,5.41-44.31-4.35,0,0-9.23-1.32-24.27,1.32,0,0,18.47,10.55,5.67,28.48,0,0-7.91,10.81-29.53-8,0,0-9.89-11.74-12.53-12.14,0,0-9.36,2.11-33.1-4.22S4.37,85.89,1.6,81,.15,61.76,18.88,47.78,40,32,58.57,22.86c0,0,7.65-20,22.68-21.5,0,0,23.08-1.71,25.72,11.61a10.26,10.26,0,0,1-.4,4.08c-.66,1.59,14.92,1.85,16.1,1.06S149.76-3.43,158,1.29c0,0,11,2.15,28,29.15A13.76,13.76,0,0,0,194.26,29.19Z"/><path id="Side_Fin" data-name="Side Fin" class="cls-2" d="M57.58,68.75s14.64,9.76,12.07,21.62c0,0,36,18.4,35.4-26.5,0,0-9.69-46.62-43.71-14.9,0,0-4.15,7.78-3.76,20.63"/><g id="Stripes"><path class="cls-3" d="M201.38,63.74s-7-14.15-7.12-34.55c0,0-2.67,2.44-8.3,1.25,0,0-10.46,6.69-.93,38.31C185,68.75,186.94,67,201.38,63.74Z"/><path class="cls-3" d="M135.21,98.2s-22-36.84-12.54-80.09c0,0-9.51,1.71-16.1-1.06,0,0-12.6,51.22,5.11,79.42A54.16,54.16,0,0,1,135.21,98.2Z"/><path class="cls-3" d="M35.43,102.15s30.26-45-4-63.68l-11,8.16s25.71,19.15,6.22,52.91Z"/></g><ellipse id="Eye" class="cls-4" cx="17.06" cy="59.16" rx="4.19" ry="3.03" transform="translate(-42.71 44.36) rotate(-60)"/><g id="Fins"><path class="cls-4" d="M216.34,66.6S271,36.93,207.6,20.44c0,0,17-9.48,31.53,4.22,0,0,8.71,8.15,8.66,13.39s.13,15.66-5.62,20.48S236.44,66.76,216.34,66.6Z"/><path class="cls-4" d="M151.25,101.25s44.6-11.67,33.78-32.5c0,0,18.09,4.31,6.87,17.72,0,0-16.3,15-25.6,15.54A58.33,58.33,0,0,1,151.25,101.25Z"/><path class="cls-4" d="M186,30.44S158.76-.72,136.16,8.58c0,0,17.35-12,23.39-6.72C159.55,1.86,169.44,4.92,186,30.44Z"/><path class="cls-4" d="M84.59,122.23s21.65,3.91,18.68-24.6c0,0,10.35,5.38,10.12,17.55,0,0-1.14,13.18-11.17,14S86.48,122.14,84.59,122.23Z"/><path class="cls-5" d="M78.39,38.47c11.35-2.62,13.44,2.31,18.3,6.94s8.36,18.46,8.36,18.46v3.66c-.68,22-12,25-12,25C111.48,32.9,61.34,49,61.34,49S69.73,40.47,78.39,38.47Z"/></g><path id="Outline" class="cls-6" d="M194.26,29.19s31.91-30.6,53.28,6.33c0,0,7.12,43-46.16,28.22,0,0-15.56,3.42-16.35,5,0,0,30.86,8.44-13.18,31.91,0,0-7,5.41-44.31-4.35,0,0-9.23-1.32-24.27,1.32,0,0,18.47,10.55,5.67,28.48,0,0-7.91,10.81-29.53-8,0,0-9.89-11.74-12.53-12.14,0,0-9.36,2.11-33.1-4.22S4.37,85.89,1.6,81,.15,61.76,18.88,47.78,40,32,58.57,22.86c0,0,7.65-20,22.68-21.5,0,0,23.08-1.71,25.72,11.61a10.26,10.26,0,0,1-.4,4.08c-.66,1.59,14.92,1.85,16.1,1.06S149.76-3.43,158,1.29c0,0,11,2.15,28,29.15A13.76,13.76,0,0,0,194.26,29.19Z"/></svg>