<svg id="Crab" xmlns="http://www.w3.org/2000/svg" viewBox="0 0 296.48 248.56"><defs><style>.cls-1{fill:#d13c27;}.cls-2{fill:#f15a36;}.cls-3{fill:#231f20;}.cls-4,.cls-5{fill:#fff;}.cls-5{stroke:#fff;}.cls-5,.cls-6{stroke-miterlimit:10;}.cls-6{fill:none;stroke:#231f20;}</style></defs><title>Crab</title><path id="Body" class="cls-1" d="M98.87,3.31s-17.8,38,7.91,23.73c0,0,13.65,10.09-8.9,17.61,0,0,8.31,20.37-15.23,27.29,0,0,6.72,9.1,4.55,23.94,0,0,16.22,14.24,15.82,16.41,0,0,4-2.57,4-3.36s-13.65-8.31-5.15-20.77c0,0,8.31-9.29,17.21-1.78,0,0,6.73,3.37,4.16,14.44,0,0,.79,3.36,5.73,1,0,0,26.64-5.27,41.41.79,0,0,4.48,2.24,3.3-2.11,0,0-4.22-16.09,12.52-17.67,0,0,8.58.4,11.48,11.47,0,0,2.63,8.18-8.44,14.77,0,0,3,2.51,5,2.38,0,0,10-15.17,15.16-14,0,0-3.29-18.86,5.41-24.13,0,0-19-1.58-17.93-29,0,0-18.73-2.9-10-20.31,0,0,9.76,12.92,15.83,4s-5.28-24.66-5.28-24.66,24.27-14.38,49.06,29.93c0,0,3.16,3.1,0,6.07,0,0,5.73,6.72-.69,12.95,0,0,4.64,9.89-4.26,11.08,0,0,2.18,4.84-1.38,7.61,0,0,17.41,23.54-4.35,32.05,0,0-6.93,3.36-10.49,3.76,0,0,1,16.41-6.66,13.51,0,0-2.63,5.54-7.78,7.65,0,0,2.91,5.67,4.09,5.8s17-11,24-13.32c.79-.26.92-9.36,13.06-19.38,0,0-6.07-18.73,8.44-21.1,0,0,20.7,5.94,5.27,25.19,0,0,3,24.92-16.48,25.71,0,0-10.29,19.78-31.65,21.23,0,0-.66,2.38.53,3.17,0,0,49.58,9.36,73.18-16,0,0,10.62,6.46,0,15,0,0-1.32,13.05-10.41,10.88,0,0-13.65,17.4-23.15,11.07,0,0-17.6,7.13-23.34,1.39,0,0-22.94-2-23.14-6.53,0,0-1.78,2.18-.79,3.36,0,0,41.73,21.57,41.34,62.31,0,0-1.39,10.49-7.91,11.08,0,0-12.86-11.67-8.51-25.32,0,0-17-11.08-16.81-18.2,0,0-24.73-10.28-20.77-18,0,0-43.32,36-99.69.79,0,0-15.83,21-22.55,19.39,0,0-5,16.61-13.85,18.39,0,0-3.76,29.08-13,22.16,0,0-24.14-34.42,37.18-73.19,0,0-1.18-2.37-2-2.57,0,0-26.1,13.85-33,6.33,0,0-27.1,3.16-27.69-8.51,0,0-31.06-10.08-20.37-29.47,0,0,2.37-2.17,4.08-.46s35.21,28,72.4,16.22c0,0-.26-3.43-.92-3.69S49,144.93,48,130.29c0,0-24.46-5.53-16.55-26.11,0,0-14-15.82,4.62-24,0,0,13.32.66,7.65,18.86,0,0,14.24,12.93,12.92,21.89,0,0,20.57,1.85,24.92,15,0,0,1.45-8.84,5.15-8.44,0,0-11.81-4.36-8.64-7.13,0,0-11.67-5.24-6.33-13,0,0-34.48-7.48-16-36.89,0,0-12.93-13.32-5-18.86,0,0-8.18-10.81.26-14.77,0,0-4-11.6,5.54-14C56.54,23,75.79-9,98.87,3.31Z"/><path id="Reflection" class="cls-2" d="M178.9,182.75c0,7-14.7,12.66-32.83,12.66s-32.84-5.67-32.84-12.66c0-4.87,6.59-17.8,17.59-11.22,4,2.39,24.27,1,27.92-.46C173,165.21,178.9,177.49,178.9,182.75Z"/><g id="Eyes"><ellipse class="cls-3" cx="111.46" cy="95.94" rx="8.51" ry="10.09" transform="translate(-29.68 54.61) rotate(-24.4)"/><ellipse class="cls-3" cx="185.31" cy="95.94" rx="10.09" ry="8.51" transform="translate(21.39 225.07) rotate(-65.6)"/></g><path id="Mouth" class="cls-3" d="M139.27,100.34s9.84,7.51,18.74-.39Z"/><g id="Claw_Reflections" data-name="Claw Reflections"><path class="cls-4" d="M205.87,6.36s19.58,6.53,20.57,12.07A15.65,15.65,0,0,0,218.14,8C211,4.39,207.45,6.76,205.87,6.36Z"/><path class="cls-5" d="M61.29,23.28s12.65-16,23.34-16.22A102.07,102.07,0,0,0,61.29,23.28Z"/></g><path id="Outline" class="cls-6" d="M98.87,3.31s-17.8,38,7.91,23.73c0,0,13.65,10.09-8.9,17.61,0,0,8.31,20.37-15.23,27.29,0,0,6.72,9.1,4.55,23.94,0,0,16.22,14.24,15.82,16.41,0,0,4-2.57,4-3.36s-13.65-8.31-5.15-20.77c0,0,8.31-9.29,17.21-1.78,0,0,6.73,3.37,4.16,14.44,0,0,.79,3.36,5.73,1,0,0,26.64-5.27,41.41.79,0,0,4.48,2.24,3.3-2.11,0,0-4.22-16.09,12.52-17.67,0,0,8.58.4,11.48,11.47,0,0,2.63,8.18-8.44,14.77,0,0,3,2.51,5,2.38,0,0,10-15.17,15.16-14,0,0-3.29-18.86,5.41-24.13,0,0-19-1.58-17.93-29,0,0-18.73-2.9-10-20.31,0,0,9.76,12.92,15.83,4s-5.28-24.66-5.28-24.66,24.27-14.38,49.06,29.93c0,0,3.16,3.1,0,6.07,0,0,5.73,6.72-.69,12.95,0,0,4.64,9.89-4.26,11.08,0,0,2.18,4.84-1.38,7.61,0,0,17.41,23.54-4.35,32.05,0,0-6.93,3.36-10.49,3.76,0,0,1,16.41-6.66,13.51,0,0-2.63,5.54-7.78,7.65,0,0,2.91,5.67,4.09,5.8s17-11,24-13.32c.79-.26.92-9.36,13.06-19.38,0,0-6.07-18.73,8.44-21.1,0,0,20.7,5.94,5.27,25.19,0,0,3,24.92-16.48,25.71,0,0-10.29,19.78-31.65,21.23,0,0-.66,2.38.53,3.17,0,0,49.58,9.36,73.18-16,0,0,10.62,6.46,0,15,0,0-1.32,13.05-10.41,10.88,0,0-13.65,17.4-23.15,11.07,0,0-17.6,7.13-23.34,1.39,0,0-22.94-2-23.14-6.53,0,0-1.78,2.18-.79,3.36,0,0,41.73,21.57,41.34,62.31,0,0-1.39,10.49-7.91,11.08,0,0-12.86-11.67-8.51-25.32,0,0-17-11.08-16.81-18.2,0,0-24.73-10.28-20.77-18,0,0-43.32,36-99.69.79,0,0-15.83,21-22.55,19.39,0,0-5,16.61-13.85,18.39,0,0-3.76,29.08-13,22.16,0,0-24.14-34.42,37.18-73.19,0,0-1.18-2.37-2-2.57,0,0-26.1,13.85-33,6.33,0,0-27.1,3.16-27.69-8.51,0,0-31.06-10.08-20.37-29.47,0,0,2.37-2.17,4.08-.46s35.21,28,72.4,16.22c0,0-.26-3.43-.92-3.69S49,144.93,48,130.29c0,0-24.46-5.53-16.55-26.11,0,0-14-15.82,4.62-24,0,0,13.32.66,7.65,18.86,0,0,14.24,12.93,12.92,21.89,0,0,20.57,1.85,24.92,15,0,0,1.45-8.84,5.15-8.44,0,0-11.81-4.36-8.64-7.13,0,0-11.67-5.24-6.33-13,0,0-34.48-7.48-16-36.89,0,0-12.93-13.32-5-18.86,0,0-8.18-10.81.26-14.77,0,0-4-11.6,5.54-14C56.54,23,75.79-9,98.87,3.31Z"/><ellipse class="cls-5" cx="187.18" cy="91.81" rx="2.84" ry="1.98" transform="translate(31.61 230.6) rotate(-67.86)"/><ellipse class="cls-5" cx="110.13" cy="93" rx="1.98" ry="2.84" transform="translate(-33.46 80.39) rotate(-35.16)"/></svg>