<svg id="Dolphin" xmlns="http://www.w3.org/2000/svg" viewBox="0 0 320.51 241.38"><defs><style>.cls-1{fill:#837f7a;}.cls-2{fill:none;}.cls-2,.cls-4{stroke:#231f20;stroke-miterlimit:10;}.cls-3{fill:#3e433f;}.cls-4{fill:#231f20;}</style></defs><title>Dolphin</title><path id="Body" class="cls-1" d="M174.68,19.3s124.22-2,138.86,89.41c0,0-2.5,4.22,6.46,15.29,0,0,.53,11.48-6.26,8.51s-16.48-11.21-16.48-11.21S265.87,104.36,251.83,103c0,0-22.42,32.24-60.66,6.92,0,0,21.62-7.64,22.15-11.21,0,0-43-.85-61.38,2.31,0,0-3.37,4.16-42.4,12.6,0,0-45,37.45-54.72,73.84,0,0,24.72,30.27,11.47,52.42,0,0-2.18-19.39-25.52-19.19a3.16,3.16,0,0,1-2.31-4.09s-3.23,3.1-6.26,2.18S13.87,208.86.52,226.3c0,0-2.14-24.36,39-42.16,0,0-16.62-63.43,74.64-138.86,0,0,35.21-25.19,4-35.87,0,0-5.54-4.95,5.94-8.31C124.05,1.1,145-4.63,174.68,19.3Z"/><path id="Fin" class="cls-2" d="M204.62,76.66s-14,9.76-38.24,8.18c0,0,18.61,27.44,73.05,3.69"/><path id="Flipper" class="cls-3" d="M213.32,98.68s32.18-2.5,38.51,4.29c0,0-9.71,13.75-27.08,16.27,0,0-14.86,3.18-33.58-9.35C191.17,109.89,210.55,103.17,213.32,98.68Z"/><path id="Eye" class="cls-4" d="M271.8,80.82s8.71-1,8.51,5.54S268.44,84.18,271.8,80.82Z"/><path id="Mouth" class="cls-2" d="M319.57,128.75s-15.52-6.39-17.7-13.12-12.65-16.22-21.56-21.76"/><path id="Outline" class="cls-2" d="M174.68,19.3s124.22-2,138.86,89.41c0,0-2.5,4.22,6.46,15.29,0,0,.53,11.48-6.26,8.51s-16.48-11.21-16.48-11.21S265.87,104.36,251.83,103c0,0-22.42,32.24-60.66,6.92,0,0,21.62-7.64,22.15-11.21,0,0-43-.85-61.38,2.31,0,0-3.37,4.16-42.4,12.6,0,0-45,37.45-54.72,73.84,0,0,24.72,30.27,11.47,52.42,0,0-2.18-19.39-25.52-19.19a3.16,3.16,0,0,1-2.31-4.09s-3.23,3.1-6.26,2.18S13.87,208.86.52,226.3c0,0-2.14-24.36,39-42.16,0,0-16.62-63.43,74.64-138.86,0,0,35.21-25.19,4-35.87,0,0-5.54-4.95,5.94-8.31C124.05,1.1,145-4.63,174.68,19.3Z"/></svg>