<svg id="Seahorse" xmlns="http://www.w3.org/2000/svg" viewBox="0 0 123.49 242.38"><defs><style>.cls-1{fill:#e8cc1c;}.cls-2{fill:#231f20;stroke:#000;}.cls-2,.cls-4,.cls-5{stroke-miterlimit:10;}.cls-3{fill:#e8da53;}.cls-4{fill:#fff;}.cls-4,.cls-5{stroke:#231f20;}.cls-5{fill:none;}</style></defs><title>Seahorse</title><path id="Body" class="cls-1" d="M106.38,95.46s16.35,1.32,16.61-5.54-16.61-16.62-8.31-30.86,8-18.72,0-18.46c0,0-4.89-12.26,2.5-16.35,0,0,2-4.62-2.5-5.28s-3.17-14.9-3.17-14.9-4.75-5-9.76-3.16c0,0-1.19,6.59-6.72,4.48S61.67-.41,46.38,12.25,16.44,41.13,22.77,89.39c0,0-9.48-5.84-12.13.79-.53,1.32-19.78,31.39,0,55.12,0,0-4.22,1.06,1.32,5.54,0,0-2,4.16-4,4.75s-.79,5.54,1,5.54-7.8,4-7.26,5.73,4.89,6.33,2.71,9.5-5.73,6.72-1.38,8.9c0,0-6.13,13.06.59,12.07,0,0-5.8,13.38,4.22,16.15,0,0-1.58,10.68,7,9.36,0,0-1.58,7.91,5.54,8.57,0,0,4.35,8.05,9.36,4.36,0,0,6.59,6.46,10.42,2.63,0,0,4.48,7.92,9.89-.13,0,0,13.07,5.8,11.68-2,0,0,13.24.53,9-6.33,0,0,10.68-1.45,7.25-8.83,0,0,10-3.17,5.41-7,0,0,11.21-8,3.83-13.06,0,0,5.14-5.53-1.19-8,0,0-2.9-28.75-34.55-18.86,0,0-31.25,24.53,4.48,38.38,0,0-14.9,12.66-25.18-5.41S39,171.55,39,171.55s8.18-13.45,15-15.17,10.16-11.74,10.16-11.74S82.47,114.05,76.69,86c0,0-5.65-30.33-9.35-35.34,0,0,6.46-8.63,8.18.6s4.88,2.83,4.88,2.83S90.82,57.22,94.51,67,103.48,85,106.38,95.46Z"/><circle id="Eye" class="cls-2" cx="111.49" cy="53.26" r="2.8"/><path id="Nose" class="cls-3" d="M112.72,64s-5.86,6.3,0,17.31c0,0-19.27-23.08-19.66-17.31,0,0,12.53,26.54,13.32,31.49,0,0,16.67.93,16.58-5.21,0,0,.79-3-5.13-10S111.74,65.06,112.72,64Z"/><path id="Hole" class="cls-4" d="M58.11,188.82s12-4.35,9.23,7.12c0,0-5.78,3.69-5.59,0S59,192.8,59,192.8,55.48,191.19,58.11,188.82Z"/><path id="Outline" class="cls-5" d="M106.38,95.46s16.35,1.32,16.61-5.54-16.61-16.62-8.31-30.86,8-18.72,0-18.46c0,0-4.89-12.26,2.5-16.35,0,0,2-4.62-2.5-5.28s-3.17-14.9-3.17-14.9-4.75-5-9.76-3.16c0,0-1.19,6.59-6.72,4.48S61.67-.41,46.38,12.25,16.44,41.13,22.77,89.39c0,0-9.48-5.84-12.13.79-.53,1.32-19.78,31.39,0,55.12,0,0-4.22,1.06,1.32,5.54,0,0-2,4.16-4,4.75s-.79,5.54,1,5.54-7.8,4-7.26,5.73,4.89,6.33,2.71,9.5-5.73,6.72-1.38,8.9c0,0-6.13,13.06.59,12.07,0,0-5.8,13.38,4.22,16.15,0,0-1.58,10.68,7,9.36,0,0-1.58,7.91,5.54,8.57,0,0,4.35,8.05,9.36,4.36,0,0,6.59,6.46,10.42,2.63,0,0,4.48,7.92,9.89-.13,0,0,13.07,5.8,11.68-2,0,0,13.24.53,9-6.33,0,0,10.68-1.45,7.25-8.83,0,0,10-3.17,5.41-7,0,0,11.21-8,3.83-13.06,0,0,5.14-5.53-1.19-8,0,0-2.9-28.75-34.55-18.86,0,0-31.25,24.53,4.48,38.38,0,0-14.9,12.66-25.18-5.41S39,171.55,39,171.55s8.18-13.45,15-15.17,10.16-11.74,10.16-11.74S82.47,114.05,76.69,86c0,0-5.65-30.33-9.35-35.34,0,0,6.46-8.63,8.18.6s4.88,2.83,4.88,2.83S90.82,57.22,94.51,67,103.48,85,106.38,95.46Z"/></svg>