<svg id="Shark" xmlns="http://www.w3.org/2000/svg" viewBox="0 0 324.13 154.66"><defs><style>.cls-1{fill:#0b6490;}.cls-2,.cls-5{fill:#fff;}.cls-3{fill:#231f20;}.cls-4{fill:none;stroke:#231f20;}.cls-4,.cls-5{stroke-miterlimit:10;}.cls-5{stroke:#fff;}.cls-6{fill:#ed1c24;}</style></defs><title>Shark</title><path id="Body" class="cls-1" d="M1.48,59.59s36.39,2.77,66.85,38.77c0,0,42.33-9.89,83.48-43.91,0,0,6.33-22.16,0-45.89,0,0,13.05-8.71,32.44,25.32,0,0,73.58-42.33,139.25-31.65,0,0-33.63,74-74,85.84,0,0,24.92,13.06,20.18,42.33,0,0-11.47.4-30.07-15.42,0,0-17.53-12.66-33.49-8.71,0,0-21.1,11.08-57.5,5.54,0,0-5.54,8.31-8.7,7.52,0,0-5.54-11.48-22.55-11.08,0,0-14,5.25-27.1,7.12-12.7,1.81-24.6.27-20.37-.79,3.16-.79,19.78-4.35,22.15-6.73,0,0-16.22-.39-22.15,0,0,0-23,38-38.77,45.89,0,0,7.51-34.81,7.51-42.33C38.66,111.41,26.4,82.93,1.48,59.59Z"/><path id="Stomach" class="cls-2" d="M316.45,16s-5.6-18.62-190.6,93.21c0,0,8.65.86,14,10.16,0,0,2.77,1,8.7-7.52,0,0,37.26,5.34,57.5-5.54,0,0,17.06-4.28,35.56,10.42,0,0,18.31,14.5,28,13.71,0,0,5.54-26.9-20.18-42.33C249.42,88.07,281,81.92,316.45,16Z"/><g id="Mouth"><path class="cls-3" d="M300.79,41.82s-36.73-6.16-51.17,1c0,0,22.51,10.32,43,10.3"/><line class="cls-3" x1="292.62" y1="53.08" x2="300.79" y2="41.82"/></g><path id="Outline" class="cls-4" d="M1.38,59.59s36.39,2.77,66.86,38.77c0,0,42.33-9.89,83.47-43.91,0,0,6.33-22.16,0-45.89,0,0,13-8.71,32.44,25.32,0,0,73.58-42.33,139.25-31.65,0,0-33.63,74-74,85.84,0,0,24.93,13.06,20.18,42.33,0,0-11.47.4-30.07-15.42,0,0-17.53-12.66-33.49-8.71,0,0-21.1,11.08-57.5,5.54,0,0-5.53,8.31-8.7,7.52,0,0-5.54-11.48-22.55-11.08,0,0-14,5.25-27.1,7.12-12.7,1.81-24.59.27-20.37-.79,3.16-.79,19.78-4.35,22.15-6.73,0,0-16.22-.39-22.15,0,0,0-22.95,38-38.77,45.89,0,0,7.52-34.81,7.52-42.33C38.57,111.41,26.3,82.93,1.38,59.59Z"/><g id="Eye"><ellipse class="cls-5" cx="270.13" cy="13.96" rx="5.93" ry="4.62" transform="translate(13.38 99.07) rotate(-21.3)"/><ellipse class="cls-3" cx="271.58" cy="13.01" rx="3.26" ry="2.47" transform="translate(22.06 121.01) rotate(-26.15)"/></g><path id="Tounge" class="cls-6" d="M260.43,47s24.44-2.29,13.54,3.84C274,50.79,262.63,48,260.43,47Z"/></svg>