<svg id="Squid" xmlns="http://www.w3.org/2000/svg" viewBox="0 0 158.56 309.77"><defs><style>.cls-1{fill:#f27c96;}.cls-1,.cls-2{stroke:#231f20;stroke-miterlimit:10;}.cls-2{fill:none;}.cls-3{fill:#fff;}.cls-4{fill:#231f20;}</style></defs><title>Squid</title><path id="Body" class="cls-1" d="M46.59,54.76s-16.92,3-11-6.53S76.92-3,81.62.73c74.22,58.19,31.17,54.47,31.17,54.47s12.47,39-10.69,107.92c0,0,19.89,32.06,32.66-2.38,0,0,1.78-29.09-8.31-14.84,0,0-3.86-30.88,15.43-8.61,0,0,12.77,54.33-20.78,68.58,0,0,3.57,8,19.6,0,0,0,15.14-3.27,17.21,37.4S139.51,259,139.51,259s22.26-14.85,3.56-31.18c0,0-8,1.19-16.33,11.88,0,0-15.73,5.64-19.89.59,0,0-.89,54,18.11,48.69,0,0,6-6.93,2.38-17.91,0,0,18.7,13.26-5.25,37.3,0,0-18.11,4.36-25.13-23.55a369.18,369.18,0,0,0-17.12-51.06A297.18,297.18,0,0,0,65,281.86c-5.34,25.53-26.71,32.66-33.24,23.75s-8.61-33.54,0-34.14c0,0-1.49,30.28,12.76,13.66,0,0,10.39-23.16,10.09-45.72,0,0-8.8,9.8-34.33-9.4,0,0-2.18-3.76-9.11,3.76s2.38,22.17,7.33,23.55c0,0-4.95,22.17-14.06.4s-2.17-50.07,18.41-51.66c0,0,32.85,9.11,5.94-7.32s-15.44-73.82-1-70.26,7.12,19.2,7.12,19.2-3.76-11.48-9.1-3.36-1.39,35,19.39,31.46,5.55-36.61,5.55-36.61S38.28,103.15,46.59,54.76Z"/><g id="Creases"><path class="cls-2" d="M106.85,240.3s1.61-26.57-11.58-42.92"/><path class="cls-2" d="M121.1,205.87s-1.57,3.64-16.33-13.24"/><path class="cls-2" d="M54.6,239.41c.06-1.42-2.32-19.88,10.87-42"/><path class="cls-2" d="M39.37,207.39c-.22-.67,9.9-13.71,15.1-14.76"/><path class="cls-2" d="M102.1,163.12s-3.62,13.16-1,16.58"/><path class="cls-2" d="M56.1,159.66s4.7,11.87,3.87,17.41"/></g><g id="Eye"><circle class="cls-3" cx="79.84" cy="152.94" r="10.68"/><circle class="cls-4" cx="79.84" cy="153.33" r="6.13"/></g><path id="Outline" class="cls-2" d="M46.59,54.76s-16.92,3-11-6.53S76.92-3,81.62.73c74.22,58.19,31.17,54.47,31.17,54.47s12.47,39-10.69,107.92c0,0,19.89,32.06,32.66-2.38,0,0,1.78-29.09-8.31-14.84,0,0-3.86-30.88,15.43-8.61,0,0,12.77,54.33-20.78,68.58,0,0,3.57,8,19.6,0,0,0,15.14-3.27,17.21,37.4S139.51,259,139.51,259s22.26-14.85,3.56-31.18c0,0-8,1.19-16.33,11.88,0,0-15.73,5.64-19.89.59,0,0-.89,54,18.11,48.69,0,0,6-6.93,2.38-17.91,0,0,18.7,13.26-5.25,37.3,0,0-18.11,4.36-25.13-23.55a369.18,369.18,0,0,0-17.12-51.06A297.18,297.18,0,0,0,65,281.86c-5.34,25.53-26.71,32.66-33.24,23.75s-8.61-33.54,0-34.14c0,0-1.49,30.28,12.76,13.66,0,0,10.39-23.16,10.09-45.72,0,0-8.8,9.8-34.33-9.4,0,0-2.18-3.76-9.11,3.76s2.38,22.17,7.33,23.55c0,0-4.95,22.17-14.06.4s-2.17-50.07,18.41-51.66c0,0,32.85,9.11,5.94-7.32s-15.44-73.82-1-70.26,7.12,19.2,7.12,19.2-3.76-11.48-9.1-3.36-1.39,35,19.39,31.46,5.55-36.61,5.55-36.61S38.28,103.15,46.59,54.76Z"/></svg>