<svg id="Stingray" xmlns="http://www.w3.org/2000/svg" viewBox="0 0 342.87 283.4"><defs><style>.cls-1{fill:#424b61;}.cls-2{fill:#fff;}.cls-3,.cls-4{fill:#231f20;}.cls-4,.cls-5{stroke:#231f20;stroke-miterlimit:10;}.cls-5{fill:none;}</style></defs><title>Stingray</title><path id="Body" class="cls-1" d="M310.71,238.42S369.79,98.64,326.53,31.13c0,0-11.07-16.36-15.82-4.22S245.06,127.65,199.82,124,100.78,84.4,97.61,3.17c0,0-14.77,52.22,33.23,106,0,0,34.16,43.91-17.27,76.35,0,0-88.22,30.86-106.42,32.44s6.72,18.6,6.72,18.6S197.3,339.57,310.71,238.42Z"/><g id="Left-Eye"><ellipse class="cls-2" cx="257.41" cy="242.52" rx="8.58" ry="12.01" transform="translate(-80.22 137.25) rotate(-25.98)"/><ellipse class="cls-3" cx="259.34" cy="243.7" rx="5.08" ry="7.11" transform="translate(-80.54 138.21) rotate(-25.98)"/></g><path id="Back" class="cls-4" d="M163.55,139.79s49,62.24,77,65.4C240.56,205.19,217.87,194.11,163.55,139.79Z"/><g id="Right-Eye"><ellipse class="cls-2" cx="300.74" cy="194.41" rx="8.58" ry="12.01" transform="translate(-39.05 307.47) rotate(-51.28)"/><ellipse class="cls-3" cx="301.47" cy="196.55" rx="5.08" ry="7.11" transform="translate(-40.45 308.84) rotate(-51.28)"/></g><path id="Outline" class="cls-5" d="M310.71,238.42S369.79,98.64,326.53,31.13c0,0-11.07-16.36-15.82-4.22S245.06,127.65,199.82,124,100.78,84.4,97.61,3.17c0,0-14.77,52.22,33.23,106,0,0,34.16,43.91-17.27,76.35,0,0-88.22,30.86-106.42,32.44s6.72,18.6,6.72,18.6S197.3,339.57,310.71,238.42Z"/></svg>