<svg id="Swordfish" xmlns="http://www.w3.org/2000/svg" viewBox="0 0 504.64 170.33"><defs><style>.cls-1{fill:#56686f;}.cls-2{fill:none;stroke:#231f20;}.cls-2,.cls-3{stroke-miterlimit:10;}.cls-3,.cls-6{fill:#fff;}.cls-3{stroke:#fff;}.cls-4{fill:#231f20;}.cls-5{fill:#546467;}</style></defs><title>Swordfish</title><path id="Body" class="cls-1" d="M500.85,40.89s-47.18,57.21,2,121c0,0-35.63-18.57-44.66-34.63s-27.1-19.57-27.1-19.57-19.95,3.76-20.45,4.64,14.43,5,17.94,4.39-14.68,3.51-15.81,5.4-15.55-6.65-15.55-6.65L369,124.2s-7.28,15.18,6.77,26c0,0-14.93,0-41-20.32,0,0-54.49,10.53-82.92,5.64,0,0-12.43,7.9,22.95,34.25,0,0-16.75,3.76-50.06-37.07,0,0-22.58,0-39.9-16.94,0,0-24.08-19.38-184.8-16.37,0,0,115.93-3,149.3-10.54,0,0,46.42-22.58,61.47-20.58,0,0,27.61-52.44,53.2-66.49,0,0-34.88,40.9,14.8,63.48,0,0,74.53,10.26,111.16,20.56L407,79s13.05,5.52,18.07,5.27c0,0-16.31,2.76-17.31,5,0,0,26.09,7,32.87,3.51C440.63,92.83,488.8,45.66,500.85,40.89Z"/><g id="Face"><path class="cls-2" d="M190.27,114.79s18.63-3,9.79-25.22"/><path class="cls-2" d="M223.21,116.86s16.56-17.31-.76-37.07"/><path class="cls-2" d="M110.29,101.37s70.76,6.83,79.23.81"/></g><g id="Eye"><ellipse class="cls-3" cx="177.29" cy="91.27" rx="6.4" ry="4.61" transform="translate(-18.5 53.46) rotate(-16.31)"/><circle class="cls-4" cx="177.29" cy="91.27" r="2.45"/></g><g id="Fins"><path class="cls-5" d="M435.11,93.81s33.12,4,30.86,9.31-31.18,7-34.88,4.52,19,6.72,23.32,14.09,17,21.78,26.52,26.8l21.92,13.31-11.71-18.3a85.19,85.19,0,0,1-9.87-30.91A108.74,108.74,0,0,1,483,79s4.9-22,17.82-38.12c0,0-11.41,6.06-25,19.09s-28,25-35.24,32.85Z"/><path class="cls-5" d="M389.94,85.79s16.81,2.4,17.82,3.53c0,0,3.15-2.78,16.32-4.84,0,0-13.69-3.44-17.08-5.45Z"/><path class="cls-5" d="M410.64,112.28s-9.91,3.26-13.42,3.14c0,0,12,7.15,15.55,6.65,0,0,2.51-1.89,15.81-5.4A46.15,46.15,0,0,1,410.64,112.28Z"/><path class="cls-5" d="M334.74,129.85s31.46-4,34.25-5.65c0,0-7,15,6.77,26C375.76,150.17,362.9,151,334.74,129.85Z"/><path class="cls-5" d="M224.71,132.67s-10.54-9.35-3.51-8.47,18-.25,30.62,11.29c0,0-11.55,8.53,22.95,34.25C274.77,169.74,261,175.64,224.71,132.67Z"/><path class="cls-5" d="M278.78,65.23s-37.7-2.69-68,3c0,0,25.29-49.87,53.2-66.49,0,0-14.92,19.55-11.47,35.18C252.51,36.93,253.19,53.44,278.78,65.23Z"/></g><path id="Reflection" class="cls-6" d="M223.58,74.77s130.65,18.14,119.94,12.8C342.31,87,285.14,66.55,223.58,74.77Z"/><path id="Outline" class="cls-2" d="M500.85,40.89s-47.18,57.21,2,121c0,0-35.63-18.57-44.66-34.63s-27.1-19.57-27.1-19.57-19.95,3.76-20.45,4.64,14.43,5,17.94,4.39-14.68,3.51-15.81,5.4-15.55-6.65-15.55-6.65L369,124.2s-7.28,15.18,6.77,26c0,0-14.93,0-41-20.32,0,0-54.49,10.53-82.92,5.64,0,0-12.43,7.9,22.95,34.25,0,0-16.75,3.76-50.06-37.07,0,0-22.58,0-39.9-16.94,0,0-24.08-19.38-184.8-16.37,0,0,115.93-3,149.3-10.54,0,0,46.42-22.58,61.47-20.58,0,0,27.61-52.44,53.2-66.49,0,0-34.88,40.9,14.8,63.48,0,0,74.53,10.26,111.16,20.56L407,79s13.05,5.52,18.07,5.27c0,0-16.31,2.76-17.31,5,0,0,26.09,7,32.87,3.51C440.63,92.83,488.8,45.66,500.85,40.89Z"/></svg>