<svg id="Turtle" xmlns="http://www.w3.org/2000/svg" viewBox="0 0 286.71 280.13"><defs><style>.cls-1{fill:#37835f;}.cls-2{fill:#391810;}.cls-3{fill:#fff;}.cls-4{fill:#231f20;}.cls-4,.cls-6{stroke:#231f20;stroke-miterlimit:10;}.cls-5{fill:#593129;}.cls-6{fill:none;}</style></defs><title>Turtle</title><path id="Body" class="cls-1" d="M58,169.83c1.64,7.52-51.17,36.92-55.65,46.41s-1.58,26.64,18.46,34,48-58.82,48-58.82c-2.37,8.71,1.85,18.47,5.8,27.7s30.33-10,30.33-10-6.33,1.32-4.75,46.69,44.05,14.24,39.56,1.84-8.56-52.75-8.56-52.75c81.11-22.41,71.07-89.4,71.07-89.4,25.32-28.49,52.48-23,52.48-23C304.57,109.43,280.31,87,280.31,87c-21.37-19.25-86.77,0-86.77,0,0-2.9-7.39-16.88-7.39-16.88,14.51-9,22.16-30,22.16-30,1.58-12.11-9.23-11.63-12.4-13.47s-20.83,8.17-26.11,17.14-10.29,10-10.29,10-5.15-1.84-16.15.53c0,0-21-54.59-51.63-53.8s7.39,21.36,7.39,21.36,32.7,31.39,3.16,44.84S45.58,113.12,58,169.83Z"/><path id="Shell" class="cls-2" d="M58,169.83c1.64,7.52,10.81,21.62,10.81,21.62-2.37,8.71,1.85,18.47,5.8,27.7s30.33-10,30.33-10l26.25-4.22c81.11-22.41,71.07-89.4,71.07-89.4A69.65,69.65,0,0,0,193.54,87c0-2.9-7.39-16.88-7.39-16.88-7.71-13-26.64-16.35-26.64-16.35s-5.15-1.84-16.15.53c0,0-11.54-1.05-41.08,12.4S45.58,113.12,58,169.83Z"/><g id="Eye"><ellipse class="cls-3" cx="202.64" cy="42.37" rx="4.22" ry="2.31" transform="translate(56.28 188.78) rotate(-56.82)"/><ellipse class="cls-4" cx="203.61" cy="41.29" rx="1.55" ry="1.09" transform="translate(74.52 204.07) rotate(-63.05)"/></g><g id="Spots"><path class="cls-5" d="M183.67,101.3h0a12.26,12.26,0,0,0-13.8.37l-7.73,5.56a12.25,12.25,0,0,0-4.87,7.59l-1.85,9.35a12.28,12.28,0,0,0,5.42,12.7h0a12.28,12.28,0,0,0,13.8-.37l7.73-5.57a12.25,12.25,0,0,0,4.87-7.59l1.84-9.34A12.26,12.26,0,0,0,183.67,101.3Z"/><path class="cls-5" d="M155,144.51h0a12.26,12.26,0,0,0-13.8.36l-7.73,5.57a12.25,12.25,0,0,0-4.87,7.59l-1.84,9.34a12.28,12.28,0,0,0,5.41,12.71h0a12.28,12.28,0,0,0,13.8-.37l7.73-5.57a12.25,12.25,0,0,0,4.87-7.59l1.84-9.34A12.25,12.25,0,0,0,155,144.51Z"/><path class="cls-5" d="M116.37,149.06h0a12.28,12.28,0,0,0-13.8.37L94.84,155A12.25,12.25,0,0,0,90,162.59l-1.84,9.34a12.25,12.25,0,0,0,5.41,12.7h0a12.26,12.26,0,0,0,13.8-.36l7.73-5.57a12.25,12.25,0,0,0,4.87-7.59l1.84-9.34A12.28,12.28,0,0,0,116.37,149.06Z"/><path class="cls-5" d="M142.9,107.74h0a12.26,12.26,0,0,0-13.8.36l-7.73,5.57a12.25,12.25,0,0,0-4.87,7.59l-1.84,9.34a12.28,12.28,0,0,0,5.41,12.71h0a12.28,12.28,0,0,0,13.8-.37l7.73-5.57a12.25,12.25,0,0,0,4.87-7.59l1.84-9.34A12.25,12.25,0,0,0,142.9,107.74Z"/><path class="cls-5" d="M167.73,64.42h0a12.26,12.26,0,0,0-13.8.36l-7.73,5.57a12.25,12.25,0,0,0-4.87,7.59l-1.84,9.35A12.28,12.28,0,0,0,144.9,100h0a12.28,12.28,0,0,0,13.8-.37l7.73-5.57a12.3,12.3,0,0,0,4.88-7.59l1.84-9.34A12.28,12.28,0,0,0,167.73,64.42Z"/><path class="cls-5" d="M129.09,69h0a12.26,12.26,0,0,0-13.8.36l-7.73,5.57a12.25,12.25,0,0,0-4.87,7.59l-1.84,9.34a12.29,12.29,0,0,0,5.41,12.71h0a12.28,12.28,0,0,0,13.8-.37l7.73-5.57A12.3,12.3,0,0,0,132.67,91l1.84-9.34A12.28,12.28,0,0,0,129.09,69Z"/><path class="cls-5" d="M102.32,110.68h0a12.28,12.28,0,0,0-13.8.37l-7.73,5.57a12.25,12.25,0,0,0-4.87,7.58l-1.84,9.35a12.26,12.26,0,0,0,5.41,12.7h0a12.26,12.26,0,0,0,13.8-.37l7.73-5.56a12.25,12.25,0,0,0,4.87-7.59l1.84-9.35A12.26,12.26,0,0,0,102.32,110.68Z"/></g><path id="Outline" class="cls-6" d="M58,169.83c1.64,7.52-51.17,36.92-55.65,46.41s-1.58,26.64,18.46,34,48-58.82,48-58.82c-2.37,8.71,1.85,18.47,5.8,27.7s30.33-10,30.33-10-6.33,1.32-4.75,46.69,44.05,14.24,39.56,1.84-8.56-52.75-8.56-52.75c81.11-22.41,71.07-89.4,71.07-89.4,25.32-28.49,52.48-23,52.48-23C304.57,109.43,280.31,87,280.31,87c-21.37-19.25-86.77,0-86.77,0,0-2.9-7.39-16.88-7.39-16.88,14.51-9,22.16-30,22.16-30,1.58-12.11-9.23-11.63-12.4-13.47s-20.83,8.17-26.11,17.14-10.29,10-10.29,10-5.15-1.84-16.15.53c0,0-21-54.59-51.63-53.8s7.39,21.36,7.39,21.36,32.7,31.39,3.16,44.84S45.58,113.12,58,169.83Z"/></svg>