<svg id="Whale" xmlns="http://www.w3.org/2000/svg" viewBox="0 0 319.16 212.96"><defs><style>.cls-1{fill:#231f20;}.cls-2{fill:#fff;}.cls-3{fill:none;stroke:#231f20;stroke-miterlimit:10;}</style></defs><title>Whale</title><path id="Body" class="cls-1" d="M247.21,3.67s11.08,0,28.88-3.16c0,0,40.75,5.93,40.75,1.58,0,0,13.84,4.75-34.82,24.53,0,0-9.49,5.53-8.7,14.24,0,0-10.68,61.71-49.85,88.22,0,0-73.58,45.49-113.53,37.18,0,0,19.78,36,10.28,43.13,0,0-4.75,8.7-12.66-3.17s-11.08-13.85-19.38-42.33c0,0-71.21-10.59-86.24-51,0,0-5.94-8.35,6.32-10.72a73.82,73.82,0,0,0,15.83-4.35s21.06-5.5,30.46-.8c2.37,1.19,65.27-4.35,105-13.84,0,0,27.89-47.08,35.81-37.58,0,0,.79,0-.5,4s-12,18.79-2,27c0,0,29.38,6.5,58.12-27.39C251,49.17,263.17,32,264,30c0,0-1.72-4.74-3.43-5.93S248.53,9.87,247.21,3.67Z"/><path id="Top" class="cls-2" d="M180.75,114.44s19.19-.4,11.27-15S182.14,84.58,199,77.06c0,0,15.21-1.88,19.76-3.82,0,0,11.69-1.72-17.19,8.17,0,0-7.52,5.17,1.38,12.37S190.05,120.77,180.75,114.44Z"/><path id="Eye" class="cls-2" d="M49.41,121.76s23.73-6.92,52.22,7.52c0,0-18,12.46-36.2,3.56,0,0-6.13-1.59-9.89-5.94S50.59,121.17,49.41,121.76Z"/><path id="Bottom" class="cls-2" d="M254.19,93.73s5.42-11.33-6.06-2.37-36.28,36.93-39,45.89C209.16,137.25,238,125,254.19,93.73Z"/><path id="Mouth" class="cls-2" d="M95,153.74S46.9,137.12,43.61,132c0,0-13.17-9.62-40.87-17.07,0,0,8.72,21,35.71,33.22S85,163.34,85,163.34s-.91-7.43,10.43-7.82C95.43,155.52,95.6,153.93,95,153.74Z"/><path id="Outline" class="cls-3" d="M247.21,3.67s11.08,0,28.88-3.16c0,0,40.75,5.93,40.75,1.58,0,0,13.84,4.75-34.82,24.53,0,0-9.49,5.53-8.7,14.24,0,0-10.68,61.71-49.85,88.22,0,0-73.58,45.49-113.53,37.18,0,0,19.78,36,10.28,43.13,0,0-4.75,8.7-12.66-3.17s-11.08-13.85-19.38-42.33c0,0-71.21-10.59-86.24-51,0,0-5.94-8.35,6.32-10.72a73.82,73.82,0,0,0,15.83-4.35s21.06-5.5,30.46-.8c2.37,1.19,65.27-4.35,105-13.84,0,0,27.89-47.08,35.81-37.58,0,0,.79,0-.5,4s-12,18.79-2,27c0,0,29.38,6.5,58.12-27.39C251,49.17,263.17,32,264,30c0,0-1.72-4.74-3.43-5.93S248.53,9.87,247.21,3.67Z"/></svg>